<svg width="64" height="64" viewBox="0 0 64 64" fill="none" xmlns="http://www.w3.org/2000/svg">
<path d="M50.6665 8H18.6665C16.5448 8 14.5099 8.84285 13.0096 10.3431C11.5094 11.8434 10.6665 13.8783 10.6665 16V48C10.6665 50.1217 11.5094 52.1566 13.0096 53.6569C14.5099 55.1571 16.5448 56 18.6665 56H50.6665C51.3737 56 52.052 55.7191 52.5521 55.219C53.0522 54.7189 53.3332 54.0406 53.3332 53.3333V10.6667C53.3332 9.95942 53.0522 9.28115 52.5521 8.78105C52.052 8.28095 51.3737 8 50.6665 8ZM18.6665 13.3333H47.9998V40H18.6665C17.7568 40.0072 16.855 40.1695 15.9998 40.48V16C15.9998 15.2928 16.2808 14.6145 16.7809 14.1144C17.281 13.6143 17.9593 13.3333 18.6665 13.3333ZM18.6665 50.6667C17.9593 50.6667 17.281 50.3857 16.7809 49.8856C16.2808 49.3855 15.9998 48.7072 15.9998 48C15.9998 47.2928 16.2808 46.6145 16.7809 46.1144C17.281 45.6143 17.9593 45.3333 18.6665 45.3333H47.9998V50.6667H18.6665Z" fill="#C4C4C4"/>
</svg>
