<svg width="64" height="64" viewBox="0 0 64 64" fill="none" xmlns="http://www.w3.org/2000/svg">
<path d="M48.6933 8H15.3067C13.3688 8 11.5103 8.76981 10.1401 10.1401C8.76981 11.5103 8 13.3688 8 15.3067V48.6933C8 50.6312 8.76981 52.4897 10.1401 53.8599C11.5103 55.2302 13.3688 56 15.3067 56H48.6933C50.6312 56 52.4897 55.2302 53.8599 53.8599C55.2302 52.4897 56 50.6312 56 48.6933V15.3067C56 13.3688 55.2302 11.5103 53.8599 10.1401C52.4897 8.76981 50.6312 8 48.6933 8ZM18.6667 29.3333H13.3333V24H18.6667V29.3333ZM13.3333 34.6667H18.6667V40H13.3333V34.6667ZM24 13.3333H40V50.6667H24V13.3333ZM50.6667 29.3333H45.3333V24H50.6667V29.3333ZM45.3333 34.6667H50.6667V40H45.3333V34.6667ZM50.6667 15.3067V18.6667H45.3333V13.3333H48.6933C48.9525 13.3333 49.2091 13.3844 49.4485 13.4835C49.6879 13.5827 49.9055 13.7281 50.0887 13.9113C50.2719 14.0946 50.4173 14.3121 50.5165 14.5515C50.6156 14.7909 50.6667 15.0475 50.6667 15.3067ZM15.3067 13.3333H18.6667V18.6667H13.3333V15.3067C13.3333 15.0475 13.3844 14.7909 13.4835 14.5515C13.5827 14.3121 13.7281 14.0946 13.9113 13.9113C14.0946 13.7281 14.3121 13.5827 14.5515 13.4835C14.7909 13.3844 15.0475 13.3333 15.3067 13.3333ZM13.3333 48.6933V45.3333H18.6667V50.6667H15.3067C15.0475 50.6667 14.7909 50.6156 14.5515 50.5165C14.3121 50.4173 14.0946 50.2719 13.9113 50.0887C13.7281 49.9054 13.5827 49.6879 13.4835 49.4485C13.3844 49.2091 13.3333 48.9525 13.3333 48.6933ZM50.6667 48.6933C50.6667 49.2167 50.4588 49.7186 50.0887 50.0887C49.7186 50.4588 49.2167 50.6667 48.6933 50.6667H45.3333V45.3333H50.6667V48.6933Z" fill="#C4C4C4"/>
</svg>
