<svg width="64" height="64" viewBox="0 0 64 64" fill="none" xmlns="http://www.w3.org/2000/svg">
<path d="M32.0001 5.33325C24.7999 5.47344 17.9491 8.46333 12.9502 13.6473C7.9512 18.8312 5.21207 25.786 5.33346 32.9866V45.3333C5.33346 47.4429 5.95905 49.5052 7.13112 51.2593C8.30319 53.0135 9.96909 54.3806 11.9182 55.188C13.8672 55.9953 16.012 56.2065 18.0811 55.795C20.1502 55.3834 22.0508 54.3675 23.5426 52.8757C25.0344 51.384 26.0503 49.4833 26.4618 47.4142C26.8734 45.3451 26.6622 43.2004 25.8548 41.2513C25.0475 39.3022 23.6803 37.6363 21.9262 36.4642C20.1721 35.2922 18.1098 34.6666 16.0001 34.6666C14.1202 34.6745 12.2774 35.1904 10.6668 36.1599V32.9866C10.5451 27.2004 12.7223 21.6019 16.7211 17.4181C20.72 13.2343 26.2143 10.8065 32.0001 10.6666C37.7859 10.8065 43.2803 13.2343 47.2791 17.4181C51.278 21.6019 53.4551 27.2004 53.3335 32.9866V36.1599C51.7228 35.1904 49.88 34.6745 48.0001 34.6666C45.8905 34.6666 43.8282 35.2922 42.074 36.4642C40.3199 37.6363 38.9527 39.3022 38.1454 41.2513C37.3381 43.2004 37.1268 45.3451 37.5384 47.4142C37.95 49.4833 38.9659 51.384 40.4577 52.8757C41.9494 54.3675 43.85 55.3834 45.9192 55.795C47.9883 56.2065 50.133 55.9953 52.0821 55.188C54.0312 54.3806 55.6971 53.0135 56.8691 51.2593C58.0412 49.5052 58.6668 47.4429 58.6668 45.3333V32.9866C58.7882 25.786 56.0491 18.8312 51.0501 13.6473C46.0511 8.46333 39.2004 5.47344 32.0001 5.33325ZM16.0001 39.9999C17.055 39.9999 18.0861 40.3127 18.9632 40.8988C19.8402 41.4848 20.5238 42.3177 20.9275 43.2923C21.3312 44.2668 21.4368 45.3392 21.231 46.3737C21.0252 47.4083 20.5172 48.3586 19.7714 49.1045C19.0255 49.8504 18.0752 50.3583 17.0406 50.5641C16.006 50.7699 14.9337 50.6643 13.9591 50.2606C12.9846 49.8569 12.1517 49.1734 11.5656 48.2963C10.9796 47.4192 10.6668 46.3881 10.6668 45.3333C10.6668 43.9188 11.2287 42.5622 12.2289 41.562C13.2291 40.5618 14.5856 39.9999 16.0001 39.9999ZM48.0001 50.6666C46.9453 50.6666 45.9141 50.3538 45.0371 49.7678C44.16 49.1817 43.4764 48.3488 43.0728 47.3742C42.6691 46.3997 42.5635 45.3273 42.7693 44.2928C42.9751 43.2582 43.483 42.3079 44.2289 41.562C44.9748 40.8161 45.9251 40.3082 46.9596 40.1024C47.9942 39.8966 49.0666 40.0022 50.0411 40.4059C51.0156 40.8096 51.8486 41.4931 52.4346 42.3702C53.0207 43.2473 53.3335 44.2784 53.3335 45.3333C53.3335 46.7477 52.7716 48.1043 51.7714 49.1045C50.7712 50.1047 49.4146 50.6666 48.0001 50.6666Z" fill="#C4C4C4"/>
</svg>
