<svg width="64" height="64" viewBox="0 0 64 64" fill="none" xmlns="http://www.w3.org/2000/svg">
<path d="M31.9998 56C31.6489 56.0021 31.301 55.9348 30.9761 55.8021C30.6512 55.6694 30.3557 55.4739 30.1065 55.2267L9.38649 34.48C6.78745 31.8539 5.32959 28.3082 5.32959 24.6134C5.32959 20.9185 6.78745 17.3729 9.38649 14.7467C12.0059 12.1347 15.554 10.668 19.2532 10.668C22.9523 10.668 26.5005 12.1347 29.1198 14.7467L31.9998 17.6267L34.8798 14.7467C37.4992 12.1347 41.0474 10.668 44.7465 10.668C48.4456 10.668 51.9938 12.1347 54.6132 14.7467C57.2122 17.3729 58.6701 20.9185 58.6701 24.6134C58.6701 28.3082 57.2122 31.8539 54.6132 34.48L33.8932 55.2267C33.644 55.4739 33.3485 55.6694 33.0236 55.8021C32.6987 55.9348 32.3508 56.0021 31.9998 56ZM19.2532 16C18.1243 15.9949 17.0056 16.2139 15.962 16.6441C14.9183 17.0744 13.9704 17.7075 13.1732 18.5067C11.5626 20.1257 10.6586 22.3164 10.6586 24.6C10.6586 26.8837 11.5626 29.0744 13.1732 30.6934L31.9998 49.5467L50.8265 30.6934C52.437 29.0744 53.3411 26.8837 53.3411 24.6C53.3411 22.3164 52.437 20.1257 50.8265 18.5067C49.1829 16.9539 47.0075 16.0888 44.7465 16.0888C42.4854 16.0888 40.31 16.9539 38.6665 18.5067L33.8932 23.3067C33.6453 23.5567 33.3503 23.755 33.0254 23.8904C32.7004 24.0258 32.3519 24.0955 31.9998 24.0955C31.6478 24.0955 31.2992 24.0258 30.9743 23.8904C30.6493 23.755 30.3544 23.5567 30.1065 23.3067L25.3332 18.5067C24.5359 17.7075 23.588 17.0744 22.5443 16.6441C21.5007 16.2139 20.382 15.9949 19.2532 16Z" fill="#C4C4C4"/>
</svg>
