<svg width="24" height="24" viewBox="0 0 24 24" xmlns="http://www.w3.org/2000/svg">
<path d="M12.3 22H12.2C10.8285 21.9896 9.4729 21.7056 8.21254 21.1647C6.95219 20.6238 5.81242 19.8369 4.85998 18.85C3.09382 16.9613 2.08986 14.4854 2.04184 11.9C1.99383 9.31458 2.90517 6.80304 4.59998 4.85005C5.69186 3.62639 7.06451 2.68613 8.59998 2.11005C8.77914 2.04111 8.97436 2.02519 9.16232 2.0642C9.35029 2.10321 9.52305 2.1955 9.65998 2.33005C9.78679 2.45937 9.87611 2.62071 9.91838 2.79683C9.96065 2.97296 9.95429 3.15725 9.89998 3.33005C9.35193 4.83098 9.24335 6.4571 9.58698 8.01757C9.9306 9.57804 10.7122 11.0081 11.84 12.14C12.9783 13.2644 14.4118 14.0433 15.9745 14.3867C17.5372 14.73 19.1652 14.6237 20.67 14.08C20.8491 14.017 21.0424 14.0062 21.2274 14.0491C21.4124 14.0919 21.5814 14.1864 21.7146 14.3218C21.8478 14.4571 21.9398 14.6275 21.9797 14.8131C22.0196 14.9988 22.0058 15.1919 21.94 15.37C21.4291 16.7338 20.6311 17.9717 19.6 19C18.6408 19.9563 17.5021 20.7137 16.2494 21.2285C14.9966 21.7434 13.6544 22.0056 12.3 22Z"/>
</svg>
