<svg width="64" height="64" viewBox="0 0 64 64" fill="none" xmlns="http://www.w3.org/2000/svg">
<path d="M55.9999 10.6668C55.9721 10.4218 55.9185 10.1805 55.8399 9.94681V9.70681C55.712 9.41003 55.5313 9.13896 55.3065 8.90681C55.0802 8.69418 54.8185 8.52272 54.5332 8.40014H54.2932C54.0475 8.21244 53.7663 8.07637 53.4665 8.00014H53.3332C53.0681 7.95991 52.7984 7.95991 52.5332 8.00014L4.53322 24.0001C3.9997 24.1755 3.53517 24.5148 3.20584 24.9697C2.87652 25.4246 2.69922 25.9719 2.69922 26.5335C2.69922 27.0951 2.87652 27.6423 3.20584 28.0972C3.53517 28.5521 3.9997 28.8914 4.53322 29.0668L27.2799 36.6401L34.8532 59.3868C35.0286 59.9203 35.3679 60.3849 35.8228 60.7142C36.2777 61.0435 36.825 61.2208 37.3866 61.2208C37.9481 61.2208 38.4954 61.0435 38.9503 60.7142C39.4052 60.3849 39.7445 59.9203 39.9199 59.3868L55.9199 11.3868C55.9792 11.1516 56.0061 10.9093 55.9999 10.6668ZM43.4665 16.7735L28.6132 31.6268L13.7599 26.6668L43.4665 16.7735ZM37.3332 50.2401L32.3732 35.3868L47.2266 20.5335L37.3332 50.2401Z" fill="#C4C4C4"/>
</svg>
