<svg width="64" height="64" viewBox="0 0 64 64" fill="none" xmlns="http://www.w3.org/2000/svg">
<path d="M31.9999 29.3333C34.1096 29.3333 36.1719 28.7077 37.926 27.5357C39.6801 26.3636 41.0473 24.6977 41.8546 22.7486C42.662 20.7996 42.8732 18.6548 42.4616 16.5857C42.0501 14.5166 41.0342 12.616 39.5424 11.1242C38.0506 9.63244 36.15 8.61654 34.0809 8.20496C32.0118 7.79339 29.867 8.00462 27.918 8.81196C25.9689 9.61929 24.303 10.9865 23.1309 12.7406C21.9588 14.4947 21.3333 16.557 21.3333 18.6667C21.3333 21.4956 22.4571 24.2088 24.4574 26.2091C26.4578 28.2095 29.1709 29.3333 31.9999 29.3333ZM31.9999 13.3333C33.0548 13.3333 34.0859 13.6461 34.963 14.2322C35.84 14.8182 36.5236 15.6512 36.9273 16.6257C37.3309 17.6002 37.4366 18.6726 37.2308 19.7072C37.025 20.7417 36.517 21.692 35.7712 22.4379C35.0253 23.1838 34.075 23.6917 33.0404 23.8975C32.0058 24.1033 30.9335 23.9977 29.9589 23.594C28.9844 23.1904 28.1514 22.5068 27.5654 21.6297C26.9794 20.7526 26.6666 19.7215 26.6666 18.6667C26.6666 17.2522 27.2285 15.8956 28.2287 14.8954C29.2289 13.8952 30.5854 13.3333 31.9999 13.3333Z" fill="#C4C4C4"/>
<path d="M31.9999 34.6667C27.0492 34.6667 22.3013 36.6334 18.8006 40.1341C15.2999 43.6348 13.3333 48.3827 13.3333 53.3334C13.3333 54.0407 13.6142 54.7189 14.1143 55.219C14.6144 55.7191 15.2927 56.0001 15.9999 56.0001C16.7072 56.0001 17.3854 55.7191 17.8855 55.219C18.3856 54.7189 18.6666 54.0407 18.6666 53.3334C18.6666 49.7972 20.0713 46.4058 22.5718 43.9053C25.0723 41.4048 28.4637 40.0001 31.9999 40.0001C35.5361 40.0001 38.9275 41.4048 41.428 43.9053C43.9285 46.4058 45.3333 49.7972 45.3333 53.3334C45.3333 54.0407 45.6142 54.7189 46.1143 55.219C46.6144 55.7191 47.2927 56.0001 47.9999 56.0001C48.7072 56.0001 49.3854 55.7191 49.8855 55.219C50.3856 54.7189 50.6666 54.0407 50.6666 53.3334C50.6666 48.3827 48.6999 43.6348 45.1992 40.1341C41.6986 36.6334 36.9506 34.6667 31.9999 34.6667Z" fill="#C4C4C4"/>
</svg>
