<svg xmlns="http://www.w3.org/2000/svg" width="1200" height="630" viewBox="0 0 1200 630">
  <defs>
    <radialGradient id="fastbreak-a" cx="82.059%" cy="84.524%" r="92.83%" fx="82.059%" fy="84.524%" gradientTransform="matrix(0 1 -.525 0 1.264 .025)">
      <stop offset="0%" stop-color="#0000CD"/>
      <stop offset="100%" stop-color="#C71585" stop-opacity=".976"/>
    </radialGradient>
  </defs>
  <g fill="none" fill-rule="evenodd">
    <rect width="1200" height="630" fill="url(#fastbreak-a)"/>
    <g fill="#FFF" transform="translate(195 251)">
      <path d="M214.051948,41.6917197 L214.051948,56.4878981 L202.730519,56.4878981 L202.730519,112.970701 L184.719156,112.970701 L184.719156,56.4878981 L177,56.4878981 L177,41.6917197 L184.719156,41.6917197 L184.719156,37.7031847 C184.719156,29.1256471 186.991996,22.8641386 191.537744,18.9184713 C196.083491,14.9728041 203.245081,13 213.022727,13 L213.022727,28.1821656 C209.248899,28.1821656 206.590105,28.9112454 205.046266,30.3694268 C203.502427,31.8276081 202.730519,34.2721697 202.730519,37.7031847 L202.730519,41.6917197 L214.051948,41.6917197 Z M277.606331,77.3312102 C277.606331,70.8122816 275.719445,65.6872798 271.945617,61.956051 C268.171788,58.2248221 263.75476,56.3592357 258.694399,56.3592357 C253.634039,56.3592357 249.238452,58.2033786 245.507508,61.8917197 C241.776564,65.5800609 239.91112,70.6836192 239.91112,77.2025478 C239.91112,83.7214763 241.798006,88.8679217 245.571834,92.6420382 C249.345663,96.4161548 253.741249,98.3031847 258.758726,98.3031847 C263.776202,98.3031847 268.171788,96.4375983 271.945617,92.7063694 C275.719445,88.9751406 277.606331,83.8501388 277.606331,77.3312102 Z M221.513799,77.2025478 C221.513799,66.4806258 224.687198,57.7102252 231.034091,50.8910828 C237.380984,44.0719404 245.443133,40.6624204 255.220779,40.6624204 C264.998426,40.6624204 272.460202,44.6938026 277.606331,52.7566879 L277.606331,41.6917197 L295.617695,41.6917197 L295.617695,112.970701 L277.606331,112.970701 L277.606331,101.005096 C272.202895,109.668408 264.698235,114 255.092127,114 C245.486018,114 237.488195,110.547593 231.098417,103.642675 C224.70864,96.7377574 221.513799,87.9244697 221.513799,77.2025478 Z M310.927354,62.5350318 C310.927354,56.3592048 313.543264,51.1698724 318.775162,46.966879 C324.007061,42.7638856 330.954232,40.6624204 339.616883,40.6624204 C348.279535,40.6624204 355.226705,42.742442 360.458604,46.9025478 C365.690502,51.0626535 368.477947,56.7022999 368.821023,63.8216561 L350.295049,63.8216561 C349.780436,57.8173797 346.092431,54.8152866 339.230925,54.8152866 C335.800172,54.8152866 333.141378,55.5014793 331.254464,56.8738854 C329.36755,58.2462914 328.424107,60.1333213 328.424107,62.5350318 C328.424107,64.9367424 329.839272,66.8237723 332.669643,68.1961783 C335.500014,69.5685844 338.930716,70.6407605 342.961851,71.4127389 C346.992986,72.1847172 351.002618,73.1496757 354.990869,74.3076433 C358.979119,75.4656109 362.388379,77.524189 365.21875,80.4834395 C368.049121,83.44269 369.464286,87.3668545 369.464286,92.256051 C369.464286,98.6892041 366.741166,103.921424 361.294846,107.952866 C355.848525,111.984309 348.901354,114 340.453125,114 C332.004896,114 325.079167,112.005752 319.675731,108.017197 C314.272294,104.028642 311.313314,98.303222 310.798701,90.8407643 L329.324675,90.8407643 C330.010826,96.8450406 333.827481,99.8471338 340.774756,99.8471338 C344.119741,99.8471338 346.821418,99.0966105 348.87987,97.5955414 C350.938322,96.0944723 351.967532,94.1216683 351.967532,91.6770701 C351.967532,89.2324719 350.552368,87.3025548 347.721997,85.8872611 C344.891625,84.4719674 341.460924,83.3783478 337.429789,82.6063694 C333.398654,81.834391 329.389022,80.8908761 325.400771,79.7757962 C321.412521,78.6607163 318.003261,76.6664687 315.17289,73.7929936 C312.342518,70.9195185 310.927354,67.1669021 310.927354,62.5350318 Z M412.562906,97.788535 L421.18263,97.788535 L421.18263,112.970701 L409.732549,112.970701 C402.442198,112.970701 396.824424,111.298106 392.879058,107.952866 C388.933692,104.607627 386.961039,99.0751978 386.961039,91.355414 L386.961039,56.4878981 L379.370536,56.4878981 L379.370536,41.6917197 L386.961039,41.6917197 L386.961039,24.0649682 L405.101055,24.0649682 L405.101055,41.6917197 L421.053977,41.6917197 L421.053977,56.4878981 L405.101055,56.4878981 L405.101055,91.355414 C405.101055,93.6713492 405.658544,95.3225004 406.773539,96.3089172 C407.888534,97.295334 409.818303,97.788535 412.562906,97.788535 Z M491.04099,77.2025478 C491.04099,70.6836192 489.175546,65.5800609 485.444602,61.8917197 C481.713658,58.2033786 477.318072,56.3592357 472.257711,56.3592357 C467.19735,56.3592357 462.801764,58.2248221 459.07082,61.956051 C455.339876,65.6872798 453.474432,70.8122816 453.474432,77.3312102 C453.474432,83.8501388 455.339876,88.9751406 459.07082,92.7063694 C462.801764,96.4375983 467.19735,98.3031847 472.257711,98.3031847 C477.318072,98.3031847 481.713658,96.4161548 485.444602,92.6420382 C489.175546,88.8679217 491.04099,83.7214763 491.04099,77.2025478 Z M453.474432,52.7566879 C458.534793,44.6938026 465.953685,40.6624204 475.731331,40.6624204 C485.508977,40.6624204 493.571126,44.0719404 499.918019,50.8910828 C506.264913,57.7102252 509.438312,66.5020693 509.438312,77.266879 C509.438312,88.0316886 506.264913,96.8449763 499.918019,103.707006 C493.571126,110.569036 485.573303,114 475.92431,114 C466.275317,114 458.792099,109.668408 453.474432,101.005096 L453.474432,112.970701 L435.334416,112.970701 L435.334416,17.7605096 L453.474432,17.7605096 L453.474432,52.7566879 Z M541.858766,41.6917197 L541.858766,54.3006369 C546.661821,45.2084471 553.608991,40.6624204 562.700487,40.6624204 L562.700487,59.1898089 L558.197646,59.1898089 C552.79421,59.1898089 548.720252,60.5407508 545.975649,63.2426752 C543.231047,65.9445995 541.858766,70.5978438 541.858766,77.2025478 L541.858766,112.970701 L523.71875,112.970701 L523.71875,41.6917197 L541.858766,41.6917197 Z M605.670455,114 C595.292426,114 586.844324,110.633367 580.325893,103.9 C573.807462,97.166633 570.548295,88.2675712 570.548295,77.2025478 C570.548295,66.1375243 573.828904,57.2813496 580.390219,50.633758 C586.951534,43.9861663 595.442521,40.6624204 605.863433,40.6624204 C616.284346,40.6624204 624.839658,43.9003922 631.529627,50.3764331 C638.219595,56.852474 641.564529,65.4942135 641.564529,76.3019108 C641.564529,78.7893967 641.392994,81.1052971 641.049919,83.2496815 L589.074269,83.2496815 C589.503114,87.8815518 591.218464,91.6127247 594.220373,94.4433121 C597.222282,97.2738995 601.038938,98.689172 605.670455,98.689172 C611.931579,98.689172 616.563026,96.1159493 619.564935,90.9694268 L639.12013,90.9694268 C637.061678,97.7456814 633.073487,103.27811 627.155438,107.566879 C621.237389,111.855648 614.0758,114 605.670455,114 Z M617.57082,60.2191083 C614.354489,57.3885209 610.473508,55.9732484 605.92776,55.9732484 C601.382012,55.9732484 597.586798,57.3885209 594.542005,60.2191083 C591.497212,63.0496957 589.674651,66.8237556 589.074269,71.5414013 L622.78125,71.5414013 C622.523944,66.8237556 620.787151,63.0496957 617.57082,60.2191083 Z M706.920049,77.3312102 C706.920049,70.8122816 705.033163,65.6872798 701.259334,61.956051 C697.485506,58.2248221 693.068478,56.3592357 688.008117,56.3592357 C682.947756,56.3592357 678.55217,58.2033786 674.821226,61.8917197 C671.090282,65.5800609 669.224838,70.6836192 669.224838,77.2025478 C669.224838,83.7214763 671.111724,88.8679217 674.885552,92.6420382 C678.65938,96.4161548 683.054967,98.3031847 688.072443,98.3031847 C693.08992,98.3031847 697.485506,96.4375983 701.259334,92.7063694 C705.033163,88.9751406 706.920049,83.8501388 706.920049,77.3312102 Z M650.827516,77.2025478 C650.827516,66.4806258 654.000915,57.7102252 660.347808,50.8910828 C666.694702,44.0719404 674.75685,40.6624204 684.534497,40.6624204 C694.312143,40.6624204 701.773919,44.6938026 706.920049,52.7566879 L706.920049,41.6917197 L724.931412,41.6917197 L724.931412,112.970701 L706.920049,112.970701 L706.920049,101.005096 C701.516613,109.668408 694.011953,114 684.405844,114 C674.799736,114 666.801912,110.547593 660.412135,103.642675 C654.022357,96.7377574 650.827516,87.9244697 650.827516,77.2025478 Z M762.369318,112.970701 L744.229302,112.970701 L744.229302,17.7605096 L762.369318,17.7605096 L762.369318,72.1847134 L786.427354,41.6917197 L811,41.6917197 L779.351461,77.7171975 L811,112.970701 L786.813312,112.970701 L762.369318,83.2496815 L762.369318,112.970701 Z"/>
      <path fill-rule="nonzero" d="M38.3804483,16.125 C28.3929077,16.125 19.9114911,23.439015 18.4432021,33.3180379 C16.8972568,43.7195522 16.125,54.1114346 16.125,64.5 C16.125,74.8885654 16.8972568,85.2804477 18.443202,95.6819619 C19.911491,105.560985 28.3929076,112.875 38.3804483,112.875 L90.6195517,112.875 C100.607092,112.875 109.088509,105.560985 110.556798,95.6819621 C112.102743,85.2804478 112.875,74.8885654 112.875,64.5 C112.875,54.1114346 112.102743,43.7195523 110.556798,33.3180381 C109.088509,23.439015 100.607092,16.125 90.6195517,16.125 L38.3804483,16.125 Z M38.3804483,0 L90.6195517,0 C108.597125,4.09381083e-08 123.863675,13.1652271 126.506595,30.9474686 C128.168865,42.1316458 129,53.3158229 129,64.5 C129,75.6841772 128.168865,86.8683544 126.506595,98.0525316 C123.863675,115.834773 108.597125,129 90.6195517,129 L38.3804483,129 C20.402875,129 5.13632513,115.834773 2.49340501,98.0525314 C0.831135003,86.8683542 6.84833336e-16,75.6841771 0,64.5 C0,53.3158228 0.831135014,42.1316456 2.49340504,30.9474684 C5.13632535,13.1652269 20.4028751,3.30242663e-15 38.3804483,0 Z M46.359375,33.7617188 C41.3499797,33.7617188 37.2890625,37.822636 37.2890625,42.8320312 C37.2890625,47.8414265 41.3499797,51.9023438 46.359375,51.9023438 L83.6484375,51.9023437 C88.6578328,51.9023437 92.71875,47.8414265 92.71875,42.8320312 C92.71875,37.822636 88.6578328,33.7617188 83.6484375,33.7617188 L46.359375,33.7617188 Z"/>
    </g>
  </g>
</svg>
