<svg width="1200" height="630" viewBox="0 0 1200 630" fill="none" xmlns="http://www.w3.org/2000/svg">
<rect width="1200" height="630" fill="url(#paint0_linear)"/>
<path d="M437.528 271C443.261 271 448.095 272.167 452.028 274.5C455.961 276.833 459.295 280.167 462.028 284.5C462.828 285.767 463.228 286.967 463.228 288.1C463.228 289.567 462.561 290.767 461.228 291.7C460.495 292.167 459.628 292.4 458.628 292.4C457.628 292.4 456.695 292.167 455.828 291.7C454.961 291.167 454.295 290.467 453.828 289.6C452.028 286.6 449.761 284.333 447.028 282.8C444.361 281.2 440.961 280.4 436.828 280.4C431.761 280.4 427.661 281.4 424.528 283.4C421.395 285.333 419.828 288.167 419.828 291.9C419.828 295.367 421.228 298.267 424.028 300.6C426.828 302.933 431.828 304.467 439.028 305.2C447.028 306 453.228 308.433 457.628 312.5C462.028 316.5 464.228 321.8 464.228 328.4C464.228 333.2 462.928 337.333 460.328 340.8C457.728 344.2 454.261 346.767 449.928 348.5C445.661 350.167 441.061 351 436.128 351C429.661 351 423.761 349.533 418.428 346.6C413.161 343.667 409.528 339.833 407.528 335.1C407.195 334.3 407.028 333.633 407.028 333.1C407.028 332.1 407.395 331.233 408.128 330.5C408.861 329.7 409.861 329.167 411.128 328.9C411.328 328.833 411.661 328.8 412.128 328.8C413.195 328.8 414.195 329.133 415.128 329.8C416.128 330.4 416.861 331.233 417.328 332.3C418.528 334.9 420.895 337.1 424.428 338.9C427.961 340.7 431.861 341.6 436.128 341.6C441.128 341.6 445.361 340.467 448.828 338.2C452.295 335.867 454.028 332.7 454.028 328.7C454.028 324.9 452.561 321.667 449.628 319C446.695 316.267 442.228 314.6 436.228 314C427.961 313.2 421.461 310.8 416.728 306.8C411.995 302.733 409.628 297.667 409.628 291.6C409.628 287.333 410.828 283.667 413.228 280.6C415.695 277.467 419.028 275.1 423.228 273.5C427.495 271.833 432.261 271 437.528 271ZM528.276 321.8C528.276 323.067 527.842 324.133 526.976 325C526.109 325.8 525.009 326.2 523.676 326.2H485.676C486.409 330.867 488.509 334.633 491.976 337.5C495.509 340.367 499.809 341.8 504.876 341.8C506.876 341.8 508.942 341.433 511.076 340.7C513.276 339.967 515.076 339.067 516.476 338C517.409 337.267 518.509 336.9 519.776 336.9C521.042 336.9 522.042 337.233 522.776 337.9C523.976 338.9 524.576 340.033 524.576 341.3C524.576 342.5 524.042 343.5 522.976 344.3C520.709 346.1 517.876 347.567 514.476 348.7C511.142 349.833 507.942 350.4 504.876 350.4C499.409 350.4 494.509 349.233 490.176 346.9C485.842 344.5 482.442 341.2 479.976 337C477.576 332.8 476.376 328.033 476.376 322.7C476.376 317.367 477.509 312.6 479.776 308.4C482.109 304.133 485.309 300.833 489.376 298.5C493.509 296.1 498.176 294.9 503.376 294.9C508.509 294.9 512.942 296.033 516.676 298.3C520.409 300.567 523.276 303.733 525.276 307.8C527.276 311.867 528.276 316.533 528.276 321.8ZM503.376 303.5C498.509 303.5 494.542 304.833 491.476 307.5C488.476 310.167 486.576 313.733 485.776 318.2H519.076C518.476 313.733 516.809 310.167 514.076 307.5C511.342 304.833 507.776 303.5 503.376 303.5ZM563.632 294.9C571.499 294.9 578.032 297.9 583.232 303.9C583.899 304.633 584.232 305.5 584.232 306.5C584.232 307.967 583.499 309.2 582.032 310.2C581.365 310.667 580.599 310.9 579.732 310.9C578.199 310.9 576.899 310.3 575.832 309.1C574.165 307.3 572.332 306 570.332 305.2C568.399 304.333 566.165 303.9 563.632 303.9C558.499 303.9 554.332 305.633 551.132 309.1C547.932 312.5 546.332 317.033 546.332 322.7C546.332 326.3 547.065 329.533 548.532 332.4C550.065 335.2 552.165 337.4 554.832 339C557.565 340.6 560.665 341.4 564.132 341.4C568.665 341.4 572.332 340.233 575.132 337.9C576.399 336.967 577.632 336.5 578.832 336.5C579.765 336.5 580.632 336.8 581.432 337.4C582.699 338.467 583.332 339.667 583.332 341C583.332 342 582.932 342.9 582.132 343.7C577.332 348.167 571.332 350.4 564.132 350.4C558.865 350.4 554.132 349.2 549.932 346.8C545.732 344.4 542.432 341.1 540.032 336.9C537.699 332.633 536.532 327.9 536.532 322.7C536.532 317.367 537.665 312.6 539.932 308.4C542.265 304.133 545.499 300.833 549.632 298.5C553.765 296.1 558.432 294.9 563.632 294.9ZM626.191 294.7C629.724 294.7 632.491 295.233 634.491 296.3C636.491 297.367 637.491 298.7 637.491 300.3C637.491 300.767 637.457 301.1 637.391 301.3C636.791 303.433 635.457 304.5 633.391 304.5C633.057 304.5 632.557 304.433 631.891 304.3C629.224 303.833 627.057 303.6 625.391 303.6C620.591 303.6 616.724 304.7 613.791 306.9C610.857 309.1 609.391 312.067 609.391 315.8V345C609.391 346.6 608.957 347.833 608.091 348.7C607.291 349.567 606.057 350 604.391 350C602.791 350 601.557 349.6 600.691 348.8C599.824 347.933 599.391 346.667 599.391 345V300.3C599.391 298.7 599.824 297.467 600.691 296.6C601.557 295.733 602.791 295.3 604.391 295.3C607.724 295.3 609.391 296.967 609.391 300.3V302.2C611.391 299.867 613.857 298.033 616.791 296.7C619.724 295.367 622.857 294.7 626.191 294.7ZM693.12 321.8C693.12 323.067 692.686 324.133 691.82 325C690.953 325.8 689.853 326.2 688.52 326.2H650.52C651.253 330.867 653.353 334.633 656.82 337.5C660.353 340.367 664.653 341.8 669.72 341.8C671.72 341.8 673.786 341.433 675.92 340.7C678.12 339.967 679.92 339.067 681.32 338C682.253 337.267 683.353 336.9 684.62 336.9C685.886 336.9 686.886 337.233 687.62 337.9C688.82 338.9 689.42 340.033 689.42 341.3C689.42 342.5 688.886 343.5 687.82 344.3C685.553 346.1 682.72 347.567 679.32 348.7C675.986 349.833 672.786 350.4 669.72 350.4C664.253 350.4 659.353 349.233 655.02 346.9C650.686 344.5 647.286 341.2 644.82 337C642.42 332.8 641.22 328.033 641.22 322.7C641.22 317.367 642.353 312.6 644.62 308.4C646.953 304.133 650.153 300.833 654.22 298.5C658.353 296.1 663.02 294.9 668.22 294.9C673.353 294.9 677.786 296.033 681.52 298.3C685.253 300.567 688.12 303.733 690.12 307.8C692.12 311.867 693.12 316.533 693.12 321.8ZM668.22 303.5C663.353 303.5 659.386 304.833 656.32 307.5C653.32 310.167 651.42 313.733 650.62 318.2H683.92C683.32 313.733 681.653 310.167 678.92 307.5C676.186 304.833 672.62 303.5 668.22 303.5ZM729.429 340C730.629 340 731.629 340.467 732.429 341.4C733.296 342.333 733.729 343.533 733.729 345C733.729 346.467 733.162 347.667 732.029 348.6C730.962 349.533 729.562 350 727.829 350H726.029C722.762 350 719.762 349.167 717.029 347.5C714.362 345.767 712.262 343.433 710.729 340.5C709.196 337.567 708.429 334.267 708.429 330.6V305.9H703.829C702.429 305.9 701.296 305.5 700.429 304.7C699.562 303.9 699.129 302.9 699.129 301.7C699.129 300.367 699.562 299.3 700.429 298.5C701.296 297.7 702.429 297.3 703.829 297.3H708.429V282.9C708.429 281.433 708.896 280.233 709.829 279.3C710.762 278.367 711.962 277.9 713.429 277.9C714.896 277.9 716.096 278.367 717.029 279.3C717.962 280.233 718.429 281.433 718.429 282.9V297.3H726.929C728.329 297.3 729.462 297.7 730.329 298.5C731.196 299.3 731.629 300.367 731.629 301.7C731.629 302.9 731.196 303.9 730.329 304.7C729.462 305.5 728.329 305.9 726.929 305.9H718.429V330.6C718.429 333.267 719.162 335.5 720.629 337.3C722.096 339.1 723.896 340 726.029 340H729.429ZM802.763 271C808.496 271 813.329 272.167 817.263 274.5C821.196 276.833 824.529 280.167 827.263 284.5C828.063 285.767 828.463 286.967 828.463 288.1C828.463 289.567 827.796 290.767 826.463 291.7C825.729 292.167 824.863 292.4 823.863 292.4C822.863 292.4 821.929 292.167 821.063 291.7C820.196 291.167 819.529 290.467 819.063 289.6C817.263 286.6 814.996 284.333 812.263 282.8C809.596 281.2 806.196 280.4 802.063 280.4C796.996 280.4 792.896 281.4 789.763 283.4C786.629 285.333 785.063 288.167 785.063 291.9C785.063 295.367 786.463 298.267 789.263 300.6C792.063 302.933 797.063 304.467 804.263 305.2C812.263 306 818.463 308.433 822.863 312.5C827.263 316.5 829.463 321.8 829.463 328.4C829.463 333.2 828.163 337.333 825.563 340.8C822.963 344.2 819.496 346.767 815.163 348.5C810.896 350.167 806.296 351 801.363 351C794.896 351 788.996 349.533 783.663 346.6C778.396 343.667 774.763 339.833 772.763 335.1C772.429 334.3 772.263 333.633 772.263 333.1C772.263 332.1 772.629 331.233 773.363 330.5C774.096 329.7 775.096 329.167 776.363 328.9C776.563 328.833 776.896 328.8 777.363 328.8C778.429 328.8 779.429 329.133 780.363 329.8C781.363 330.4 782.096 331.233 782.563 332.3C783.763 334.9 786.129 337.1 789.663 338.9C793.196 340.7 797.096 341.6 801.363 341.6C806.363 341.6 810.596 340.467 814.063 338.2C817.529 335.867 819.263 332.7 819.263 328.7C819.263 324.9 817.796 321.667 814.863 319C811.929 316.267 807.463 314.6 801.463 314C793.196 313.2 786.696 310.8 781.963 306.8C777.229 302.733 774.863 297.667 774.863 291.6C774.863 287.333 776.063 283.667 778.463 280.6C780.929 277.467 784.263 275.1 788.463 273.5C792.729 271.833 797.496 271 802.763 271ZM869.21 294.9C874.343 294.9 878.977 296.133 883.11 298.6C887.31 301 890.61 304.333 893.01 308.6C895.477 312.8 896.71 317.5 896.71 322.7V345C896.71 346.467 896.21 347.7 895.21 348.7C894.277 349.633 893.077 350.1 891.61 350.1C890.143 350.1 888.91 349.633 887.91 348.7C886.977 347.7 886.51 346.467 886.51 345V341.3C884.177 344.167 881.343 346.4 878.01 348C874.677 349.6 871.077 350.4 867.21 350.4C862.41 350.4 858.043 349.2 854.11 346.8C850.243 344.4 847.177 341.1 844.91 336.9C842.71 332.633 841.61 327.9 841.61 322.7C841.61 317.5 842.81 312.8 845.21 308.6C847.61 304.333 850.91 301 855.11 298.6C859.377 296.133 864.077 294.9 869.21 294.9ZM869.21 341.4C872.543 341.4 875.543 340.6 878.21 339C880.943 337.333 883.077 335.1 884.61 332.3C886.143 329.433 886.91 326.233 886.91 322.7C886.91 319.167 886.143 315.967 884.61 313.1C883.077 310.233 880.943 308 878.21 306.4C875.543 304.733 872.543 303.9 869.21 303.9C865.877 303.9 862.843 304.733 860.11 306.4C857.443 308 855.31 310.233 853.71 313.1C852.177 315.967 851.41 319.167 851.41 322.7C851.41 326.233 852.177 329.433 853.71 332.3C855.31 335.1 857.443 337.333 860.11 339C862.843 340.6 865.877 341.4 869.21 341.4ZM939.091 294.8C943.691 294.8 947.824 295.8 951.491 297.8C955.157 299.8 958.024 302.733 960.091 306.6C962.157 310.4 963.191 315 963.191 320.4V345C963.191 346.467 962.691 347.7 961.691 348.7C960.757 349.633 959.557 350.1 958.091 350.1C956.624 350.1 955.391 349.633 954.391 348.7C953.457 347.7 952.991 346.467 952.991 345V320.4C952.991 315 951.524 310.933 948.591 308.2C945.724 305.4 941.891 304 937.091 304C934.291 304 931.724 304.567 929.391 305.7C927.124 306.833 925.324 308.367 923.991 310.3C922.724 312.233 922.091 314.4 922.091 316.8V345C922.091 346.467 921.624 347.7 920.691 348.7C919.757 349.633 918.524 350.1 916.991 350.1C915.524 350.1 914.291 349.633 913.291 348.7C912.357 347.7 911.891 346.467 911.891 345V300.4C911.891 298.867 912.357 297.633 913.291 296.7C914.291 295.767 915.524 295.3 916.991 295.3C918.524 295.3 919.757 295.767 920.691 296.7C921.624 297.633 922.091 298.867 922.091 300.4V301.5C924.224 299.367 926.757 297.733 929.691 296.6C932.624 295.4 935.757 294.8 939.091 294.8ZM1003.35 340C1004.55 340 1005.55 340.467 1006.35 341.4C1007.22 342.333 1007.65 343.533 1007.65 345C1007.65 346.467 1007.09 347.667 1005.95 348.6C1004.89 349.533 1003.49 350 1001.75 350H999.955C996.688 350 993.688 349.167 990.955 347.5C988.288 345.767 986.188 343.433 984.655 340.5C983.121 337.567 982.355 334.267 982.355 330.6V305.9H977.755C976.355 305.9 975.221 305.5 974.355 304.7C973.488 303.9 973.055 302.9 973.055 301.7C973.055 300.367 973.488 299.3 974.355 298.5C975.221 297.7 976.355 297.3 977.755 297.3H982.355V282.9C982.355 281.433 982.821 280.233 983.755 279.3C984.688 278.367 985.888 277.9 987.355 277.9C988.821 277.9 990.021 278.367 990.955 279.3C991.888 280.233 992.355 281.433 992.355 282.9V297.3H1000.85C1002.25 297.3 1003.39 297.7 1004.25 298.5C1005.12 299.3 1005.55 300.367 1005.55 301.7C1005.55 302.9 1005.12 303.9 1004.25 304.7C1003.39 305.5 1002.25 305.9 1000.85 305.9H992.355V330.6C992.355 333.267 993.088 335.5 994.555 337.3C996.021 339.1 997.821 340 999.955 340H1003.35ZM1044.99 294.9C1050.12 294.9 1054.76 296.133 1058.89 298.6C1063.09 301 1066.39 304.333 1068.79 308.6C1071.26 312.8 1072.49 317.5 1072.49 322.7V345C1072.49 346.467 1071.99 347.7 1070.99 348.7C1070.06 349.633 1068.86 350.1 1067.39 350.1C1065.92 350.1 1064.69 349.633 1063.69 348.7C1062.76 347.7 1062.29 346.467 1062.29 345V341.3C1059.96 344.167 1057.12 346.4 1053.79 348C1050.46 349.6 1046.86 350.4 1042.99 350.4C1038.19 350.4 1033.82 349.2 1029.89 346.8C1026.02 344.4 1022.96 341.1 1020.69 336.9C1018.49 332.633 1017.39 327.9 1017.39 322.7C1017.39 317.5 1018.59 312.8 1020.99 308.6C1023.39 304.333 1026.69 301 1030.89 298.6C1035.16 296.133 1039.86 294.9 1044.99 294.9ZM1044.99 341.4C1048.32 341.4 1051.32 340.6 1053.99 339C1056.72 337.333 1058.86 335.1 1060.39 332.3C1061.92 329.433 1062.69 326.233 1062.69 322.7C1062.69 319.167 1061.92 315.967 1060.39 313.1C1058.86 310.233 1056.72 308 1053.99 306.4C1051.32 304.733 1048.32 303.9 1044.99 303.9C1041.66 303.9 1038.62 304.733 1035.89 306.4C1033.22 308 1031.09 310.233 1029.49 313.1C1027.96 315.967 1027.19 319.167 1027.19 322.7C1027.19 326.233 1027.96 329.433 1029.49 332.3C1031.09 335.1 1033.22 337.333 1035.89 339C1038.62 340.6 1041.66 341.4 1044.99 341.4Z" fill="white"/>
<g clip-path="url(#clip0)">
<path d="M176.195 240.146C189.577 240.146 200.425 229.298 200.425 215.916C200.425 202.534 189.577 191.686 176.195 191.686C162.813 191.686 151.965 202.534 151.965 215.916C151.965 229.298 162.813 240.146 176.195 240.146Z" fill="#EEEDED"/>
<path opacity="0.1" d="M184.886 228.859C171.505 228.859 160.657 218.011 160.657 204.63C160.657 202.085 161.051 199.633 161.779 197.329C156.468 201.773 153.088 208.449 153.088 215.916C153.088 229.297 163.936 240.145 177.318 240.145C188.155 240.145 197.328 233.03 200.425 223.217C196.218 226.738 190.801 228.859 184.886 228.859Z" fill="black"/>
<path d="M338.75 337.361C351.69 337.361 362.18 326.87 362.18 313.93C362.18 300.99 351.69 290.5 338.75 290.5C325.81 290.5 315.319 300.99 315.319 313.93C315.319 326.87 325.81 337.361 338.75 337.361Z" fill="#F7C2AD"/>
<path opacity="0.2" d="M338.752 329.059C330.41 329.059 323.623 322.271 323.623 313.929C323.623 305.587 330.41 298.799 338.752 298.799C347.095 298.799 353.882 305.587 353.882 313.929C353.882 322.271 347.095 329.059 338.752 329.059ZM338.752 306.299C334.545 306.299 331.123 309.722 331.123 313.929C331.123 318.136 334.545 321.559 338.752 321.559C342.959 321.559 346.382 318.136 346.382 313.929C346.382 309.722 342.959 306.299 338.752 306.299Z" fill="#E86478"/>
<path opacity="0.1" d="M322.582 290.498C321.028 290.498 319.509 290.653 318.039 290.942C316.267 298.316 315.322 306.011 315.322 313.929C315.322 321.846 316.267 329.541 318.039 336.915C319.509 337.204 321.028 337.359 322.582 337.359C335.523 337.359 346.013 326.869 346.013 313.929C346.013 300.988 335.523 290.498 322.582 290.498Z" fill="black"/>
<path d="M157.25 337.361C170.19 337.361 180.68 326.87 180.68 313.93C180.68 300.99 170.19 290.5 157.25 290.5C144.31 290.5 133.819 300.99 133.819 313.93C133.819 326.87 144.31 337.361 157.25 337.361Z" fill="#F7C2AD"/>
<path opacity="0.2" d="M157.248 329.059C148.906 329.059 142.118 322.271 142.118 313.929C142.118 305.587 148.906 298.799 157.248 298.799C165.591 298.799 172.378 305.587 172.378 313.929C172.378 322.271 165.591 329.059 157.248 329.059ZM157.248 306.299C153.041 306.299 149.618 309.722 149.618 313.929C149.618 318.136 153.041 321.559 157.248 321.559C161.455 321.559 164.878 318.136 164.878 313.929C164.878 309.722 161.455 306.299 157.248 306.299Z" fill="#E86478"/>
<path opacity="0.1" d="M173.417 290.498C174.972 290.498 176.49 290.653 177.96 290.942C179.732 298.316 180.678 306.011 180.678 313.929C180.678 321.846 179.732 329.541 177.96 336.915C176.49 337.204 174.972 337.359 173.417 337.359C160.477 337.359 149.987 326.869 149.987 313.929C149.987 300.988 160.477 290.498 173.417 290.498Z" fill="black"/>
<path d="M248 403.62C297.534 403.62 337.69 363.464 337.69 313.93C337.69 264.396 297.534 224.24 248 224.24C198.466 224.24 158.31 264.396 158.31 313.93C158.31 363.464 198.466 403.62 248 403.62Z" fill="#F7C2AD"/>
<path d="M247.999 222.785C197.662 222.785 156.855 263.592 156.855 313.929C156.855 364.267 197.662 405.074 247.999 405.074C298.337 405.074 339.144 364.267 339.144 313.929C339.144 263.592 298.337 222.785 247.999 222.785ZM247.999 389.786C206.105 389.786 172.143 355.824 172.143 313.929C172.143 272.035 206.105 238.073 247.999 238.073C289.894 238.073 323.856 272.035 323.856 313.929C323.856 355.824 289.894 389.786 247.999 389.786Z" fill="#EEEDED"/>
<path d="M303.604 318.776C299.924 318.654 296.338 318.964 292.89 319.658C287.607 320.723 282.084 319.38 277.995 315.87C269.935 308.951 259.456 304.77 248 304.77C236.545 304.77 226.066 308.951 218.006 315.87C213.917 319.38 208.393 320.723 203.11 319.658C199.663 318.964 196.076 318.654 192.397 318.776C168.642 319.564 149.189 338.621 147.95 362.357C146.564 388.926 167.697 410.903 193.962 410.903C194.561 410.903 195.156 410.892 195.749 410.869C200.363 410.691 204.646 413.227 206.697 417.364C214.23 432.556 229.895 443 248.001 443C266.107 443 281.772 432.556 289.304 417.364C291.355 413.228 295.637 410.692 300.251 410.869C300.844 410.892 301.44 410.903 302.038 410.903C328.304 410.903 349.437 388.926 348.05 362.357C346.812 338.621 327.359 319.563 303.604 318.776Z" fill="#EEEDED"/>
<path opacity="0.1" d="M313.137 401.176C312.538 401.176 311.943 401.164 311.35 401.142C306.736 400.964 302.453 403.5 300.402 407.637C299.327 409.806 298.08 411.874 296.69 413.833C298.912 411.853 301.849 410.75 304.938 410.869C305.531 410.892 306.127 410.903 306.725 410.903C324.9 410.903 340.615 400.378 348.114 385.092C339.664 394.938 327.129 401.176 313.137 401.176ZM259.099 433.273C240.993 433.273 225.328 422.829 217.796 407.637C215.745 403.501 211.463 400.965 206.849 401.142C206.256 401.164 205.66 401.176 205.062 401.176C178.796 401.176 157.663 379.199 159.05 352.63C159.38 346.297 161.018 340.304 163.677 334.895C157.26 342.371 153.184 351.91 152.639 362.357C151.253 388.925 172.385 410.903 198.651 410.903C199.249 410.903 199.845 410.891 200.438 410.868C205.051 410.691 209.334 413.227 211.385 417.364C218.917 432.556 234.582 443 252.688 443C270.794 443 286.459 432.556 293.991 417.364C294.03 417.287 294.074 417.214 294.114 417.138C285.664 427.011 273.115 433.273 259.099 433.273Z" fill="black"/>
<path d="M333.86 265.224C333.86 222.022 295.419 187 248 187C200.581 187 162.14 222.022 162.14 265.224H333.86Z" fill="#E86478"/>
<path opacity="0.1" d="M333.434 257.398H178.413C178.413 230.372 193.457 206.547 216.331 192.495C184.586 203.979 162.14 232.212 162.14 265.224H333.86C333.86 262.582 333.714 259.972 333.434 257.398Z" fill="black"/>
<path opacity="0.1" d="M316.929 254.295H179.07C171.537 262.994 165.628 273.135 161.803 284.246C162.604 284.378 163.425 284.449 164.263 284.449H331.736C332.574 284.449 333.396 284.378 334.197 284.246C330.371 273.135 324.461 262.994 316.929 254.295Z" fill="black"/>
<path d="M331.737 276.909H164.264C155.937 276.909 149.186 270.158 149.186 261.831C149.186 253.504 155.937 246.754 164.264 246.754H331.737C340.064 246.754 346.814 253.504 346.814 261.831C346.814 270.158 340.064 276.909 331.737 276.909Z" fill="#EEEDED"/>
<path opacity="0.1" d="M340.213 269.903H172.739C164.412 269.903 157.662 263.153 157.662 254.826C157.662 252.478 158.199 250.256 159.156 248.274C154.138 250.722 150.681 255.872 150.681 261.831C150.681 270.158 157.431 276.909 165.758 276.909H333.231C339.21 276.909 344.376 273.428 346.814 268.383C344.82 269.356 342.581 269.903 340.213 269.903Z" fill="black"/>
<path d="M287.376 300.991C285.305 300.991 283.626 299.312 283.626 297.241V290.705C283.626 288.634 285.305 286.955 287.376 286.955C289.447 286.955 291.126 288.634 291.126 290.705V297.242C291.126 299.312 289.447 300.991 287.376 300.991Z" fill="#485458"/>
<path d="M208.624 300.991C206.553 300.991 204.874 299.312 204.874 297.241V290.705C204.874 288.634 206.553 286.955 208.624 286.955C210.695 286.955 212.374 288.634 212.374 290.705V297.242C212.374 299.312 210.696 300.991 208.624 300.991Z" fill="#485458"/>
<path d="M248.001 334.374C242.938 334.374 238.124 332.181 234.792 328.358C233.432 326.796 233.594 324.428 235.156 323.067C236.717 321.706 239.086 321.868 240.446 323.43C242.353 325.618 245.107 326.873 248 326.873C250.894 326.873 253.647 325.618 255.554 323.43C256.915 321.869 259.284 321.706 260.845 323.067C262.407 324.427 262.569 326.796 261.209 328.358C257.877 332.181 253.063 334.374 248.001 334.374Z" fill="#485458"/>
</g>
<defs>
<linearGradient id="paint0_linear" x1="600" y1="0" x2="600" y2="630" gradientUnits="userSpaceOnUse">
<stop stop-color="#E7636E"/>
<stop offset="1" stop-color="#CC2D5D"/>
</linearGradient>
<clipPath id="clip0">
<rect width="256" height="256" fill="white" transform="matrix(-1 0 0 1 376 187)"/>
</clipPath>
</defs>
</svg>
