<svg xmlns="http://www.w3.org/2000/svg" width="1600" height="900" viewBox="0 0 1600 900" fill="none">
  <rect width="1600" height="900" fill="#F8FAFC"/>
  <rect x="80" y="140" width="1440" height="620" rx="40" fill="#FFFFFF" stroke="#CBD5E1" stroke-width="4"/>
  <rect x="150" y="250" width="280" height="220" rx="28" fill="#0F172A"/>
  <text x="190" y="320" fill="#F8FAFC" font-family="Arial, sans-serif" font-size="38" font-weight="700">User intent</text>
  <text x="190" y="380" fill="#94A3B8" font-family="Arial, sans-serif" font-size="28">"Show me the</text>
  <text x="190" y="420" fill="#94A3B8" font-family="Arial, sans-serif" font-size="28">best next action"</text>
  <rect x="560" y="190" width="500" height="340" rx="34" fill="#FFFFFF" stroke="#0F766E" stroke-width="5"/>
  <text x="615" y="270" fill="#0F172A" font-family="Arial, sans-serif" font-size="40" font-weight="700">Context + capabilities</text>
  <text x="615" y="340" fill="#334155" font-family="Arial, sans-serif" font-size="28">Permissions</text>
  <text x="615" y="390" fill="#334155" font-family="Arial, sans-serif" font-size="28">Product state</text>
  <text x="615" y="440" fill="#334155" font-family="Arial, sans-serif" font-size="28">Available tools</text>
  <text x="615" y="490" fill="#334155" font-family="Arial, sans-serif" font-size="28">Design-system primitives</text>
  <rect x="1140" y="250" width="300" height="220" rx="28" fill="#CCFBF1" stroke="#0F766E" stroke-width="5"/>
  <text x="1290" y="320" fill="#134E4A" font-family="Arial, sans-serif" font-size="34" font-weight="700" text-anchor="middle">Generated UI</text>
  <rect x="1185" y="365" width="190" height="24" rx="12" fill="#14B8A6"/>
  <rect x="1185" y="410" width="150" height="24" rx="12" fill="#99F6E4"/>
  <rect x="1185" y="455" width="210" height="44" rx="14" fill="#0F172A"/>
  <text x="1290" y="484" fill="#F8FAFC" font-family="Arial, sans-serif" font-size="22" font-weight="700" text-anchor="middle">Take action</text>
  <path d="M445 360H525" stroke="#0F766E" stroke-width="10" stroke-linecap="round"/>
  <path d="M510 330L560 360L510 390" fill="none" stroke="#0F766E" stroke-width="10" stroke-linecap="round" stroke-linejoin="round"/>
  <path d="M1070 360H1095" stroke="#0F766E" stroke-width="10" stroke-linecap="round"/>
  <path d="M1080 330L1125 360L1080 390" fill="none" stroke="#0F766E" stroke-width="10" stroke-linecap="round" stroke-linejoin="round"/>
  <text x="800" y="660" fill="#475569" font-family="Arial, sans-serif" font-size="34" text-anchor="middle">The interface becomes a response to intent, grounded in context.</text>
</svg>
